<?xml version="1.0" encoding="UTF-8"?>
<svg id="_Слой_2" data-name="Слой 2" xmlns="http://www.w3.org/2000/svg" viewBox="0 0 1147.16 380.21">
  <defs>
    <style>
      .cls-1 {
        fill: #fff;
      }

      .cls-2 {
        fill: #2f5a85;
      }
    </style>
  </defs>
  <g id="_Слой_9" data-name="Слой 9">
    <g>
      <g>
        <polygon class="cls-2" points="166.96 0 0 378.52 979.45 380.21 1147.16 0 166.96 0"/>
        <polyline class="cls-1" points="182.27 32.3 43.76 346.32 264.47 346.24 275.14 322.06 306.03 252.03 330.92 195.6 232.79 195.6 203.41 256.44 174.33 256.44 232.92 123.61 362.45 124.11 402.94 32.3"/>
        <g>
          <polygon class="cls-1" points="424.92 32.3 384.65 123.61 580.33 123.61 620.6 32.3 424.92 32.3"/>
          <polygon class="cls-1" points="350.44 201.19 326.06 256.44 405.62 265.67 558.1 174.01 580.33 123.61 503.6 113.11 350.44 201.19"/>
          <polygon class="cls-1" points="286.42 346.32 482 346.32 521.73 256.44 326.06 256.44 286.42 346.32"/>
        </g>
        <polyline class="cls-1" points="642.58 32.3 503.72 346.32 724.74 346.32 735.1 322.85 765.99 252.82 790.88 196.39 692.75 196.39 663.37 257.23 634.29 257.23 692.88 124.4 822.41 124.9 863.19 32.3"/>
      </g>
      <polyline class="cls-1" points="883.09 32.3 796.9 225.33 916.53 225.33 902.46 257.23 783.62 257.23 744.23 346.32 965.26 346.32 1004.55 257.23 1049.2 155.93 919.44 155.93 933.39 124.4 1063.14 124.4 1103.7 32.3 883.09 32.3 842.36 124.4 933.39 124.4"/>
    </g>
  </g>
</svg>