<svg width="50" height="50" viewBox="0 0 50 50" fill="none" xmlns="http://www.w3.org/2000/svg">
<circle cx="25" cy="25" r="24" stroke="#222222" stroke-width="2"/>
<path d="M27.6094 28.527H13.6619V24.0909H27.456C28.4957 24.0909 29.348 23.9375 30.0128 23.6307C30.6776 23.3239 31.1676 22.8892 31.483 22.3267C31.7983 21.7642 31.956 21.0994 31.956 20.3324C31.956 19.5824 31.7983 18.9048 31.483 18.2997C31.1676 17.6946 30.6861 17.2131 30.0384 16.8551C29.3906 16.4972 28.581 16.3182 27.6094 16.3182H22.8793V38H17.3821V11.8182H27.6094C29.6804 11.8182 31.4531 12.1889 32.9276 12.9304C34.4105 13.6634 35.544 14.669 36.3281 15.9474C37.1122 17.2173 37.5 18.6577 37.4915 20.2685C37.5 21.956 37.1037 23.4176 36.3026 24.6534C35.5014 25.8892 34.3594 26.8438 32.8764 27.517C31.3935 28.1903 29.6378 28.527 27.6094 28.527ZM28.5938 30.2145V34.6506H13.6619V30.2145H28.5938Z" fill="#222222"/>
</svg>
