<svg width="51" height="37" viewBox="0 0 51 37" fill="none" xmlns="http://www.w3.org/2000/svg">
<path d="M32.483 0C42.4329 0 50.4994 8.06583 50.4996 18.0156C50.4996 27.9656 42.433 36.0322 32.483 36.0322C22.5332 36.032 14.4674 27.9655 14.4674 18.0156C14.4676 8.06597 22.5334 0.000216477 32.483 0ZM32.483 10.9189C28.5636 10.9192 25.3865 14.0962 25.3864 18.0156C25.3864 21.9352 28.5635 25.1131 32.483 25.1133C36.4027 25.1133 39.5807 21.9353 39.5807 18.0156C39.5805 14.0961 36.4026 10.9189 32.483 10.9189Z" fill="#8B3FFD"/>
<path d="M8.1891 30.8456H14.4674V4.91345H0L8.1891 30.8456Z" fill="#8B3FFD"/>
</svg>
